<?xml version="1.0" encoding="UTF-8"?>
<svg xmlns="http://www.w3.org/2000/svg" xmlns:xlink="http://www.w3.org/1999/xlink" width="382.666667" height="172" viewBox="0 0 382.666667 172" version="1.1">
<g id="surface1">
<path style=" stroke:none;fill-rule:nonzero;fill:rgb(100%,100%,100%);fill-opacity:1;" d="M 0.800781 106.667969 L 100.800781 106.667969 L 100.800781 64.667969 L 0.800781 64.667969 Z M 0.800781 106.667969 "/>
<path style="fill:none;stroke-width:1;stroke-linecap:round;stroke-linejoin:round;stroke:rgb(0%,0%,0%);stroke-opacity:1;stroke-miterlimit:10;" d="M 96.600586 136.500977 L 171.600586 136.500977 L 171.600586 168.000977 L 96.600586 168.000977 Z M 96.600586 136.500977 " transform="matrix(1.333333,0,0,1.333333,-128,-117.333333)"/>
<path style=" stroke:none;fill-rule:nonzero;fill:rgb(0%,0%,0%);fill-opacity:1;" d="M 35.027344 82.167969 L 36.238281 82.167969 C 36.214844 82.582031 36.175781 82.957031 36.113281 83.332031 L 33.488281 83.332031 L 33.488281 84.125 L 35.902344 84.125 L 35.777344 84.417969 C 35.382812 85.230469 34.570312 85.917969 33.320312 86.480469 L 33.882812 87.1875 C 35.070312 86.625 35.925781 85.9375 36.402344 85.082031 C 37.214844 85.5625 37.863281 86.019531 38.363281 86.480469 L 38.988281 85.875 C 38.363281 85.394531 37.589844 84.917969 36.675781 84.457031 C 36.695312 84.355469 36.738281 84.25 36.777344 84.125 L 39.214844 84.125 L 39.214844 83.332031 L 36.945312 83.332031 C 37.007812 82.980469 37.027344 82.582031 37.050781 82.167969 L 38.863281 82.167969 L 38.863281 81.394531 L 35.445312 81.394531 C 35.550781 81.167969 35.652344 80.894531 35.757812 80.605469 L 34.988281 80.4375 C 34.589844 81.394531 34.113281 82.144531 33.527344 82.6875 L 34.050781 83.332031 C 34.402344 83 34.738281 82.625 35.027344 82.167969 Z M 39.714844 81.355469 L 39.714844 85.730469 L 43.652344 85.730469 L 43.652344 81.355469 Z M 42.820312 84.980469 L 40.550781 84.980469 L 40.550781 82.105469 L 42.820312 82.105469 Z M 42.800781 86.605469 L 35.132812 86.605469 L 35.132812 91.5625 L 35.988281 91.5625 L 35.988281 91.019531 L 41.925781 91.019531 L 41.925781 91.5625 L 42.800781 91.5625 Z M 35.988281 90.25 L 35.988281 89.207031 L 41.925781 89.207031 L 41.925781 90.25 Z M 35.988281 88.457031 L 35.988281 87.375 L 41.925781 87.375 L 41.925781 88.457031 Z M 35.988281 88.457031 "/>
<path style=" stroke:none;fill-rule:nonzero;fill:rgb(0%,0%,0%);fill-opacity:1;" d="M 46.945312 87.417969 L 49.714844 87.417969 L 49.714844 88.542969 L 46.945312 88.542969 Z M 49.714844 86.6875 L 46.945312 86.6875 L 46.945312 85.542969 L 49.714844 85.542969 Z M 46.945312 89.269531 L 49.714844 89.269531 L 49.714844 90.230469 C 49.714844 90.542969 49.570312 90.6875 49.257812 90.6875 L 48.363281 90.667969 L 48.570312 91.480469 L 49.550781 91.480469 C 50.214844 91.480469 50.550781 91.105469 50.550781 90.417969 L 50.550781 84.769531 L 46.113281 84.769531 L 46.113281 91.5625 L 46.945312 91.5625 Z M 54.757812 85.769531 C 55.175781 85.769531 55.488281 85.6875 55.675781 85.5 C 55.902344 85.292969 56.050781 84.6875 56.132812 83.6875 L 55.339844 83.4375 C 55.277344 84.1875 55.214844 84.625 55.089844 84.792969 C 55.007812 84.917969 54.839844 85 54.589844 85 L 53.027344 85 C 52.695312 85 52.550781 84.792969 52.550781 84.417969 L 52.550781 82.917969 C 53.863281 82.730469 55.027344 82.5 56.027344 82.25 L 55.757812 81.480469 C 54.925781 81.707031 53.863281 81.917969 52.550781 82.125 L 52.550781 80.5625 L 51.695312 80.5625 L 51.695312 84.605469 C 51.695312 85.375 52.050781 85.769531 52.777344 85.769531 Z M 52.550781 88.480469 C 53.777344 88.375 54.945312 88.167969 56.027344 87.855469 L 55.757812 87.082031 C 54.800781 87.375 53.738281 87.582031 52.550781 87.707031 L 52.550781 86.230469 L 51.695312 86.230469 L 51.695312 90.394531 C 51.695312 91.019531 52.027344 91.355469 52.757812 91.355469 L 54.800781 91.355469 C 55.238281 91.355469 55.550781 91.25 55.738281 91.082031 C 55.964844 90.855469 56.113281 90.269531 56.195312 89.292969 L 55.402344 89.0625 C 55.363281 89.792969 55.277344 90.230469 55.152344 90.394531 C 55.050781 90.519531 54.863281 90.582031 54.632812 90.582031 L 52.988281 90.582031 C 52.675781 90.582031 52.550781 90.4375 52.550781 90.207031 Z M 49.675781 81.375 L 49.007812 81.792969 C 49.300781 82.207031 49.570312 82.625 49.820312 83 C 48.695312 83.144531 47.632812 83.25 46.632812 83.292969 C 47.300781 82.6875 47.902344 81.855469 48.445312 80.792969 L 47.632812 80.519531 C 47.152344 81.480469 46.527344 82.355469 45.777344 83.125 C 45.675781 83.207031 45.550781 83.292969 45.382812 83.355469 L 45.632812 84.0625 C 47.402344 83.980469 48.945312 83.832031 50.214844 83.625 C 50.382812 83.894531 50.527344 84.144531 50.652344 84.417969 L 51.363281 83.917969 C 50.964844 83.1875 50.402344 82.355469 49.675781 81.375 Z M 49.675781 81.375 "/>
<path style=" stroke:none;fill-rule:nonzero;fill:rgb(0%,0%,0%);fill-opacity:1;" d="M 58.738281 85.0625 L 58.738281 91.542969 L 59.589844 91.542969 L 59.589844 83.667969 C 60.050781 82.792969 60.445312 81.832031 60.757812 80.832031 L 59.964844 80.480469 C 59.425781 82.457031 58.507812 84.207031 57.257812 85.75 L 57.527344 86.605469 C 57.945312 86.125 58.363281 85.605469 58.738281 85.0625 Z M 60.550781 82.582031 L 60.550781 83.417969 L 62.882812 83.417969 C 62.300781 85.625 61.363281 87.4375 60.007812 88.8125 L 60.464844 89.5625 C 61.945312 87.980469 62.988281 85.917969 63.570312 83.417969 L 63.714844 83.417969 L 63.714844 88.230469 L 61.882812 88.230469 L 61.882812 89.0625 L 63.714844 89.0625 L 63.714844 91.542969 L 64.570312 91.542969 L 64.570312 89.0625 L 66.445312 89.0625 L 66.445312 88.230469 L 64.570312 88.230469 L 64.570312 83.417969 L 64.714844 83.417969 C 65.277344 85.644531 66.300781 87.644531 67.757812 89.417969 L 68.320312 88.707031 C 66.925781 87.167969 65.945312 85.394531 65.402344 83.417969 L 67.839844 83.417969 L 67.839844 82.582031 L 64.570312 82.582031 L 64.570312 80.519531 L 63.714844 80.519531 L 63.714844 82.582031 Z M 60.550781 82.582031 "/>
<path style=" stroke:none;fill-rule:nonzero;fill:rgb(69.803923%,85.09804%,100%);fill-opacity:1;" d="M 141.332031 42.667969 L 241.332031 42.667969 L 241.332031 0.667969 L 141.332031 0.667969 Z M 141.332031 42.667969 "/>
<path style="fill:none;stroke-width:1;stroke-linecap:round;stroke-linejoin:round;stroke:rgb(0%,0%,0%);stroke-opacity:1;stroke-miterlimit:10;" d="M 201.999023 88.500977 L 276.999023 88.500977 L 276.999023 120.000977 L 201.999023 120.000977 Z M 201.999023 88.500977 " transform="matrix(1.333333,0,0,1.333333,-128,-117.333333)"/>
<path style=" stroke:none;fill-rule:nonzero;fill:rgb(0%,0%,0%);fill-opacity:1;" d="M 180.417969 17.375 L 180.417969 18.1875 L 184.75 18.1875 L 184.75 17.375 Z M 179.9375 20.605469 L 179.9375 21.457031 L 181.605469 21.457031 C 181.019531 23.625 180.542969 24.957031 180.167969 25.457031 C 180.125 25.480469 180.0625 25.5 179.980469 25.519531 L 180.1875 26.355469 C 181.667969 26.082031 183.0625 25.730469 184.332031 25.269531 C 184.457031 25.542969 184.582031 25.832031 184.6875 26.144531 L 185.4375 25.75 C 184.9375 24.542969 184.394531 23.4375 183.8125 22.394531 L 183.082031 22.75 C 183.394531 23.3125 183.707031 23.894531 184.019531 24.542969 C 183.082031 24.894531 182.125 25.167969 181.1875 25.355469 C 181.542969 24.5625 181.957031 23.269531 182.4375 21.457031 L 185.207031 21.457031 L 185.207031 20.605469 Z M 187.019531 16.5625 L 187.019531 18.980469 L 185.394531 18.980469 L 185.394531 19.832031 L 187.019531 19.832031 L 187.019531 19.980469 C 186.980469 23.207031 186.230469 25.542969 184.730469 27 L 185.375 27.5625 C 187 25.957031 187.832031 23.4375 187.875 19.980469 L 187.875 19.832031 L 189.644531 19.832031 C 189.625 23.0625 189.582031 24.980469 189.5 25.625 C 189.417969 26.3125 189.0625 26.667969 188.480469 26.667969 C 188.144531 26.667969 187.769531 26.625 187.332031 26.605469 L 187.519531 27.375 C 188.042969 27.394531 188.375 27.417969 188.582031 27.417969 C 189.625 27.417969 190.207031 26.917969 190.332031 25.957031 C 190.4375 25.0625 190.5 22.75 190.5 18.980469 L 187.875 18.980469 L 187.875 16.5625 Z M 187.019531 16.5625 "/>
<path style=" stroke:none;fill-rule:nonzero;fill:rgb(0%,0%,0%);fill-opacity:1;" d="M 197.144531 19.082031 L 197.792969 19.082031 L 197.792969 27.542969 L 198.667969 27.542969 L 198.667969 24.75 L 202.25 24.75 L 202.25 23.917969 L 198.667969 23.917969 L 198.667969 21.894531 L 202.167969 21.894531 L 202.167969 21.0625 L 198.667969 21.0625 L 198.667969 19.082031 L 202.6875 19.082031 L 202.6875 18.230469 L 197.519531 18.230469 C 197.707031 17.730469 197.894531 17.207031 198.082031 16.644531 L 197.230469 16.457031 C 196.5625 18.480469 195.6875 20.125 194.625 21.375 L 195.230469 22.105469 C 195.957031 21.25 196.582031 20.230469 197.144531 19.082031 Z M 193.292969 20.792969 L 193.292969 27.542969 L 194.1875 27.542969 L 194.1875 19.5 C 194.667969 18.6875 195.082031 17.8125 195.394531 16.875 L 194.582031 16.5 C 194 18.3125 193.042969 19.917969 191.75 21.332031 L 192.042969 22.25 C 192.5 21.792969 192.917969 21.3125 193.292969 20.792969 Z M 193.292969 20.792969 "/>
<path style=" stroke:none;fill-rule:nonzero;fill:rgb(40.000001%,74.901962%,100%);fill-opacity:1;" d="M 141.332031 106.667969 L 241.332031 106.667969 L 241.332031 64.667969 L 141.332031 64.667969 Z M 141.332031 106.667969 "/>
<path style="fill:none;stroke-width:1;stroke-linecap:round;stroke-linejoin:round;stroke:rgb(0%,0%,0%);stroke-opacity:1;stroke-miterlimit:10;" d="M 201.999023 136.500977 L 276.999023 136.500977 L 276.999023 168.000977 L 201.999023 168.000977 Z M 201.999023 136.500977 " transform="matrix(1.333333,0,0,1.333333,-128,-117.333333)"/>
<path style=" stroke:none;fill-rule:nonzero;fill:rgb(0%,0%,0%);fill-opacity:1;" d="M 180.167969 87.230469 L 180.167969 88.0625 L 184.644531 88.0625 C 184.042969 89.292969 182.4375 90.1875 179.875 90.707031 L 180.230469 91.519531 C 182.9375 90.894531 184.667969 89.875 185.394531 88.480469 C 186.082031 89.894531 187.75 90.917969 190.417969 91.480469 L 190.75 90.6875 C 188.355469 90.230469 186.75 89.355469 185.957031 88.0625 L 190.5 88.0625 L 190.5 87.230469 L 185.75 87.230469 C 185.792969 86.917969 185.8125 86.582031 185.8125 86.207031 L 184.980469 86.207031 C 184.957031 86.605469 184.9375 86.9375 184.894531 87.230469 Z M 183.375 80.582031 L 183.375 83.519531 C 182.417969 84.042969 181.292969 84.480469 180.019531 84.855469 L 180.375 85.644531 C 181.5 85.292969 182.5 84.855469 183.375 84.394531 L 183.375 86.125 L 184.25 86.125 L 184.25 80.582031 Z M 180.769531 81.082031 L 180.292969 81.769531 C 180.980469 82.105469 181.644531 82.5625 182.292969 83.125 L 182.769531 82.417969 C 182.167969 81.875 181.5 81.457031 180.769531 81.082031 Z M 186.917969 80.542969 C 186.5 81.457031 185.75 82.25 184.605469 82.894531 L 185.144531 83.582031 C 185.792969 83.1875 186.332031 82.769531 186.769531 82.292969 L 189.417969 82.292969 C 189.105469 82.9375 188.605469 83.519531 187.917969 84 C 187.5625 83.644531 187.1875 83.292969 186.792969 82.957031 L 186.1875 83.417969 C 186.5625 83.6875 186.917969 84.019531 187.292969 84.394531 C 186.625 84.769531 185.832031 85.0625 184.894531 85.3125 L 185.3125 86.0625 C 188.042969 85.3125 189.6875 84.042969 190.269531 82.230469 L 190.269531 81.480469 L 187.375 81.480469 C 187.542969 81.230469 187.667969 80.9375 187.792969 80.644531 Z M 186.917969 80.542969 "/>
<path style=" stroke:none;fill-rule:nonzero;fill:rgb(0%,0%,0%);fill-opacity:1;" d="M 194.480469 84.019531 L 194.480469 85.875 C 194.457031 88.207031 194.042969 89.894531 193.207031 90.9375 L 193.832031 91.480469 C 194.667969 90.394531 195.144531 88.75 195.25 86.542969 L 196.6875 86.542969 C 196.667969 88.25 196.644531 89.355469 196.5625 89.855469 C 196.480469 90.375 196.269531 90.625 195.894531 90.667969 C 195.6875 90.667969 195.394531 90.625 195.0625 90.605469 L 195.292969 91.332031 C 195.542969 91.355469 195.792969 91.375 196 91.375 C 196.667969 91.355469 197.0625 91 197.230469 90.3125 C 197.375 89.644531 197.457031 88.144531 197.480469 85.792969 L 195.25 85.792969 L 195.25 84.019531 L 197.5625 84.019531 L 197.5625 83.230469 L 193.3125 83.230469 L 193.3125 81.8125 L 197.875 81.8125 L 197.875 81.019531 L 192.519531 81.019531 L 192.519531 85.894531 C 192.5 88.082031 192.25 89.769531 191.769531 90.980469 L 192.375 91.542969 C 192.957031 90.125 193.269531 88.25 193.3125 85.894531 L 193.3125 84.019531 Z M 199.355469 80.582031 L 199.355469 83.105469 L 198 83.105469 L 198 83.894531 L 199.355469 83.894531 C 199.292969 87.144531 198.6875 89.5 197.480469 91 L 198.105469 91.542969 C 199.417969 89.917969 200.125 87.355469 200.1875 83.894531 L 201.542969 83.894531 C 201.542969 87.207031 201.480469 89.1875 201.375 89.8125 C 201.292969 90.375 200.957031 90.667969 200.417969 90.667969 C 200.125 90.667969 199.8125 90.625 199.4375 90.605469 L 199.605469 91.332031 C 200.042969 91.375 200.355469 91.375 200.542969 91.375 C 201.5 91.375 202.042969 90.9375 202.167969 90.0625 C 202.269531 89.1875 202.355469 86.875 202.355469 83.105469 L 200.207031 83.105469 L 200.207031 80.582031 Z M 199.355469 80.582031 "/>
<path style=" stroke:none;fill-rule:nonzero;fill:rgb(100%,100%,100%);fill-opacity:1;" d="M 281.863281 106.667969 L 381.863281 106.667969 L 381.863281 64.667969 L 281.863281 64.667969 Z M 281.863281 106.667969 "/>
<path style="fill:none;stroke-width:1;stroke-linecap:round;stroke-linejoin:round;stroke:rgb(0%,0%,0%);stroke-opacity:1;stroke-miterlimit:10;" d="M 307.397461 136.500977 L 382.397461 136.500977 L 382.397461 168.000977 L 307.397461 168.000977 Z M 307.397461 136.500977 " transform="matrix(1.333333,0,0,1.333333,-128,-117.333333)"/>
<path style=" stroke:none;fill-rule:nonzero;fill:rgb(0%,0%,0%);fill-opacity:1;" d="M 329.097656 84.375 L 328.429688 84.792969 C 329.410156 86.019531 330.179688 87.125 330.761719 88.125 L 331.492188 87.625 C 330.929688 86.6875 330.117188 85.625 329.097656 84.375 Z M 320.699219 84.894531 L 320.699219 85.730469 L 322.035156 85.730469 L 322.035156 88.8125 C 321.472656 88.957031 320.929688 89.082031 320.367188 89.167969 L 320.574219 90 C 321.972656 89.6875 323.261719 89.292969 324.472656 88.832031 L 324.472656 88 C 323.949219 88.207031 323.410156 88.394531 322.867188 88.5625 L 322.867188 85.730469 L 324.242188 85.730469 L 324.242188 84.894531 L 322.867188 84.894531 L 322.867188 82.3125 L 324.410156 82.3125 L 324.410156 81.457031 L 320.511719 81.457031 L 320.511719 82.3125 L 322.035156 82.3125 L 322.035156 84.894531 Z M 324.886719 81.125 L 324.886719 81.957031 L 327.972656 81.957031 C 327.285156 84.144531 326.074219 86.019531 324.324219 87.582031 L 324.847656 88.25 C 325.886719 87.332031 326.742188 86.292969 327.429688 85.125 L 327.429688 91.519531 L 328.285156 91.519531 L 328.285156 83.480469 C 328.492188 82.980469 328.660156 82.480469 328.824219 81.957031 L 330.972656 81.957031 L 330.972656 81.125 Z M 324.886719 81.125 "/>
<path style=" stroke:none;fill-rule:nonzero;fill:rgb(0%,0%,0%);fill-opacity:1;" d="M 336.347656 81.4375 L 336.347656 82.167969 L 337.449219 82.167969 C 337.617188 82.542969 337.761719 82.980469 337.886719 83.4375 L 335.992188 83.4375 L 335.992188 84.167969 L 343.199219 84.167969 L 343.199219 83.4375 L 341.136719 83.4375 C 341.324219 83.019531 341.472656 82.582031 341.597656 82.167969 L 342.847656 82.167969 L 342.847656 81.4375 L 339.972656 81.4375 C 339.867188 81.0625 339.785156 80.730469 339.660156 80.417969 L 338.742188 80.5625 C 338.867188 80.832031 338.972656 81.125 339.097656 81.4375 Z M 340.304688 83.4375 L 338.699219 83.4375 C 338.574219 82.980469 338.449219 82.5625 338.304688 82.167969 L 340.785156 82.167969 C 340.679688 82.582031 340.511719 83.019531 340.304688 83.4375 Z M 336.742188 84.917969 L 336.742188 88.6875 L 338.035156 88.6875 C 337.910156 89.207031 337.660156 89.625 337.285156 89.9375 C 336.847656 90.292969 336.117188 90.582031 335.117188 90.769531 L 335.449219 91.542969 C 336.597656 91.292969 337.429688 90.917969 337.929688 90.4375 C 338.386719 90 338.699219 89.417969 338.847656 88.6875 L 340.011719 88.6875 L 340.011719 90.394531 C 340.011719 91.042969 340.324219 91.375 340.949219 91.375 L 342.324219 91.375 C 342.660156 91.375 342.910156 91.292969 343.074219 91.105469 C 343.242188 90.917969 343.367188 90.394531 343.429688 89.519531 L 342.660156 89.292969 C 342.636719 89.9375 342.574219 90.3125 342.492188 90.457031 C 342.429688 90.542969 342.324219 90.605469 342.179688 90.605469 L 341.199219 90.605469 C 340.972656 90.605469 340.847656 90.480469 340.847656 90.230469 L 340.847656 88.6875 L 342.367188 88.6875 L 342.367188 84.917969 Z M 341.554688 87.980469 L 337.535156 87.980469 L 337.535156 87.082031 L 341.554688 87.082031 Z M 337.535156 86.480469 L 337.535156 85.605469 L 341.554688 85.605469 L 341.554688 86.480469 Z M 335.972656 87.8125 C 335.492188 88.042969 335.011719 88.25 334.511719 88.4375 L 334.511719 84.292969 L 335.597656 84.292969 L 335.597656 83.457031 L 334.511719 83.457031 L 334.511719 80.605469 L 333.636719 80.605469 L 333.636719 83.457031 L 332.386719 83.457031 L 332.386719 84.292969 L 333.636719 84.292969 L 333.636719 88.730469 C 333.222656 88.855469 332.804688 88.957031 332.386719 89.0625 L 332.617188 90 C 333.804688 89.644531 334.929688 89.207031 335.972656 88.6875 Z M 335.972656 87.8125 "/>
<path style="fill:none;stroke-width:1;stroke-linecap:round;stroke-linejoin:miter;stroke:rgb(0%,0%,0%);stroke-opacity:1;stroke-miterlimit:10;" d="M 239.499023 120.000977 L 239.499023 128.250977 L 239.499023 127.799805 L 239.499023 130.600586 " transform="matrix(1.333333,0,0,1.333333,-128,-117.333333)"/>
<path style="fill:none;stroke-width:1;stroke-linecap:butt;stroke-linejoin:miter;stroke:rgb(0%,0%,0%);stroke-opacity:1;stroke-miterlimit:10;" d="M 239.499023 134.602539 L 239.499023 130.600586 M 240.999023 130.600586 L 239.499023 134.602539 L 237.999023 130.600586 " transform="matrix(1.333333,0,0,1.333333,-128,-117.333333)"/>
<path style="fill:none;stroke-width:1;stroke-linecap:round;stroke-linejoin:miter;stroke:rgb(0%,0%,0%);stroke-opacity:1;stroke-miterlimit:10;" d="M 201.999023 152.250977 L 177.500977 152.250977 " transform="matrix(1.333333,0,0,1.333333,-128,-117.333333)"/>
<path style="fill:none;stroke-width:1;stroke-linecap:butt;stroke-linejoin:miter;stroke:rgb(0%,0%,0%);stroke-opacity:1;stroke-miterlimit:10;" d="M 173.499023 152.250977 L 177.500977 152.250977 M 177.500977 153.750977 L 173.499023 152.250977 L 177.500977 150.750977 " transform="matrix(1.333333,0,0,1.333333,-128,-117.333333)"/>
<path style="fill:none;stroke-width:1;stroke-linecap:round;stroke-linejoin:miter;stroke:rgb(0%,0%,0%);stroke-opacity:1;stroke-miterlimit:10;" d="M 307.397461 152.250977 L 282.899414 152.250977 " transform="matrix(1.333333,0,0,1.333333,-128,-117.333333)"/>
<path style="fill:none;stroke-width:1;stroke-linecap:butt;stroke-linejoin:miter;stroke:rgb(0%,0%,0%);stroke-opacity:1;stroke-miterlimit:10;" d="M 278.897461 152.250977 L 282.899414 152.250977 M 282.899414 153.750977 L 278.897461 152.250977 L 282.899414 150.750977 " transform="matrix(1.333333,0,0,1.333333,-128,-117.333333)"/>
<path style=" stroke:none;fill-rule:nonzero;fill:rgb(69.803923%,85.09804%,100%);fill-opacity:1;" d="M 141.332031 170.667969 L 241.332031 170.667969 L 241.332031 128.667969 L 141.332031 128.667969 Z M 141.332031 170.667969 "/>
<path style="fill:none;stroke-width:1;stroke-linecap:round;stroke-linejoin:round;stroke:rgb(0%,0%,0%);stroke-opacity:1;stroke-miterlimit:10;" d="M 201.999023 184.500977 L 276.999023 184.500977 L 276.999023 216.000977 L 201.999023 216.000977 Z M 201.999023 184.500977 " transform="matrix(1.333333,0,0,1.333333,-128,-117.333333)"/>
<path style=" stroke:none;fill-rule:nonzero;fill:rgb(0%,0%,0%);fill-opacity:1;" d="M 189.8125 145 L 184.8125 145 L 184.8125 151.605469 L 185.625 151.605469 L 185.625 145.8125 L 189 145.8125 L 189 151.605469 L 189.8125 151.605469 Z M 189.625 155.3125 C 190 155.3125 190.292969 155.230469 190.480469 155.019531 C 190.6875 154.8125 190.832031 154.1875 190.894531 153.167969 L 190.144531 152.917969 C 190.105469 153.707031 190.019531 154.1875 189.917969 154.355469 C 189.8125 154.480469 189.6875 154.542969 189.480469 154.542969 L 188.6875 154.542969 C 188.417969 154.542969 188.292969 154.394531 188.292969 154.125 L 188.292969 151.625 L 187.480469 151.625 L 187.480469 154.3125 C 187.480469 154.980469 187.792969 155.3125 188.457031 155.3125 Z M 186.894531 146.6875 L 186.894531 149.019531 C 186.855469 150.519531 186.582031 151.75 186.105469 152.6875 C 185.582031 153.582031 184.644531 154.292969 183.3125 154.855469 L 183.769531 155.582031 C 185.144531 155.019531 186.125 154.269531 186.730469 153.269531 C 187.355469 152.230469 187.667969 150.8125 187.707031 149.019531 L 187.707031 146.6875 Z M 180.625 147.3125 L 180.042969 147.875 C 180.832031 148.855469 181.5625 149.792969 182.1875 150.730469 C 181.644531 152.167969 180.855469 153.394531 179.8125 154.4375 L 180.375 155.0625 C 181.375 154.0625 182.167969 152.894531 182.75 151.5625 C 183.144531 152.1875 183.542969 152.832031 183.875 153.480469 L 184.480469 152.875 C 184.0625 152.125 183.605469 151.375 183.105469 150.605469 C 183.5625 149.292969 183.8125 147.792969 183.894531 146.144531 L 183.894531 145.480469 L 180.125 145.480469 L 180.125 146.3125 L 183.082031 146.3125 C 183 147.5625 182.8125 148.707031 182.519531 149.769531 C 181.9375 148.9375 181.292969 148.125 180.625 147.3125 Z M 180.625 147.3125 "/>
<path style=" stroke:none;fill-rule:nonzero;fill:rgb(0%,0%,0%);fill-opacity:1;" d="M 192.625 144.792969 L 192.042969 145.355469 C 192.769531 145.917969 193.355469 146.457031 193.75 146.957031 L 194.3125 146.375 C 193.875 145.855469 193.292969 145.3125 192.625 144.792969 Z M 192.4375 147.730469 L 191.855469 148.292969 C 192.5625 148.894531 193.105469 149.480469 193.519531 150.019531 L 194.082031 149.457031 C 193.644531 148.875 193.082031 148.3125 192.4375 147.730469 Z M 193.5 150.957031 C 193.042969 152.355469 192.5 153.730469 191.917969 155.0625 L 192.707031 155.394531 C 193.25 154.082031 193.769531 152.707031 194.230469 151.25 Z M 198.8125 145.125 L 194.792969 145.125 L 194.792969 152.5 L 195.5625 152.5 L 195.5625 145.855469 L 198.0625 145.855469 L 198.0625 152.4375 L 198.8125 152.4375 Z M 197.542969 153 L 197 153.5 C 197.769531 154.230469 198.375 154.894531 198.792969 155.542969 L 199.375 154.957031 C 198.875 154.3125 198.269531 153.644531 197.542969 153 Z M 196.457031 146.6875 L 196.457031 150.5 C 196.4375 151.605469 196.25 152.5 195.9375 153.207031 C 195.605469 153.875 195 154.417969 194.144531 154.832031 L 194.605469 155.542969 C 195.480469 155.105469 196.125 154.519531 196.519531 153.769531 C 196.9375 152.957031 197.144531 151.855469 197.1875 150.5 L 197.1875 146.6875 Z M 201.417969 155.4375 C 202.042969 155.4375 202.355469 155.082031 202.355469 154.417969 L 202.355469 144.605469 L 201.542969 144.605469 L 201.542969 154.207031 C 201.542969 154.519531 201.394531 154.6875 201.125 154.6875 C 200.75 154.6875 200.332031 154.667969 199.917969 154.625 L 200.082031 155.4375 Z M 199.769531 145.582031 L 199.769531 153.082031 L 200.519531 153.082031 L 200.519531 145.582031 Z M 199.769531 145.582031 "/>
<path style="fill:none;stroke-width:1;stroke-linecap:round;stroke-linejoin:miter;stroke:rgb(0%,0%,0%);stroke-opacity:1;stroke-miterlimit:10;" d="M 134.100586 136.500977 L 134.100586 108.285156 C 134.100586 106.079102 135.890625 104.286133 138.102539 104.286133 L 177.202148 104.286133 C 177.208008 104.286133 177.210937 104.286133 177.213867 104.286133 L 187.092773 104.250977 C 187.098633 104.250977 187.101562 104.250977 187.104492 104.250977 L 196.101562 104.250977 " transform="matrix(1.333333,0,0,1.333333,-128,-117.333333)"/>
<path style="fill:none;stroke-width:1;stroke-linecap:butt;stroke-linejoin:miter;stroke:rgb(0%,0%,0%);stroke-opacity:1;stroke-miterlimit:10;" d="M 200.100586 104.250977 L 196.101562 104.250977 M 196.101562 102.750977 L 200.100586 104.250977 L 196.101562 105.750977 " transform="matrix(1.333333,0,0,1.333333,-128,-117.333333)"/>
<path style="fill:none;stroke-width:1;stroke-linecap:round;stroke-linejoin:miter;stroke:rgb(0%,0%,0%);stroke-opacity:1;stroke-miterlimit:10;" d="M 276.999023 104.250977 L 286.989258 104.250977 C 286.995117 104.250977 287.003906 104.250977 287.012695 104.250977 L 296.950195 104.198242 C 296.956055 104.198242 296.964844 104.198242 296.967773 104.198242 L 340.898438 104.198242 C 343.110352 104.198242 344.897461 105.991211 344.897461 108.200195 L 344.897461 130.600586 " transform="matrix(1.333333,0,0,1.333333,-128,-117.333333)"/>
<path style="fill:none;stroke-width:1;stroke-linecap:butt;stroke-linejoin:miter;stroke:rgb(0%,0%,0%);stroke-opacity:1;stroke-miterlimit:10;" d="M 344.897461 134.602539 L 344.897461 130.600586 M 346.397461 130.600586 L 344.897461 134.602539 L 343.397461 130.600586 " transform="matrix(1.333333,0,0,1.333333,-128,-117.333333)"/>
<path style="fill:none;stroke-width:1;stroke-linecap:round;stroke-linejoin:miter;stroke:rgb(0%,0%,0%);stroke-opacity:1;stroke-miterlimit:10;" d="M 344.897461 168.000977 L 344.897461 195.90332 C 344.897461 198.109375 343.110352 199.902344 340.898438 199.902344 L 307.230469 199.902344 C 307.204102 199.902344 307.171875 199.902344 307.139648 199.902344 L 291.946289 200.250977 C 291.914062 200.250977 291.887695 200.250977 291.855469 200.250977 L 282.899414 200.250977 " transform="matrix(1.333333,0,0,1.333333,-128,-117.333333)"/>
<path style="fill:none;stroke-width:1;stroke-linecap:butt;stroke-linejoin:miter;stroke:rgb(0%,0%,0%);stroke-opacity:1;stroke-miterlimit:10;" d="M 278.897461 200.250977 L 282.899414 200.250977 M 282.899414 201.750977 L 278.897461 200.250977 L 282.899414 198.750977 " transform="matrix(1.333333,0,0,1.333333,-128,-117.333333)"/>
<path style="fill:none;stroke-width:1;stroke-linecap:round;stroke-linejoin:miter;stroke:rgb(0%,0%,0%);stroke-opacity:1;stroke-miterlimit:10;" d="M 201.999023 200.250977 L 192.020508 200.250977 C 192.008789 200.250977 191.991211 200.250977 191.979492 200.250977 L 185.551758 200.31543 C 185.53418 200.31543 185.522461 200.31543 185.507812 200.31543 L 138.102539 200.31543 C 135.890625 200.31543 134.100586 198.522461 134.100586 196.316406 L 134.100586 173.898438 " transform="matrix(1.333333,0,0,1.333333,-128,-117.333333)"/>
<path style="fill:none;stroke-width:1;stroke-linecap:butt;stroke-linejoin:miter;stroke:rgb(0%,0%,0%);stroke-opacity:1;stroke-miterlimit:10;" d="M 134.100586 169.899414 L 134.100586 173.898438 M 132.600586 173.898438 L 134.100586 169.899414 L 135.600586 173.898438 " transform="matrix(1.333333,0,0,1.333333,-128,-117.333333)"/>
</g>
</svg>
